<svg xmlns="http://www.w3.org/2000/svg" viewBox="0 0 88.711 89.047"><defs><style>.cls-1,.cls-2{fill:none;}.cls-1,.cls-2,.cls-3{stroke:#000;}.cls-1,.cls-3{stroke-linecap:round;}.cls-1{stroke-miterlimit:10;stroke-width:4px;}.cls-2,.cls-3{stroke-linejoin:round;}.cls-2{stroke-width:5px;}</style></defs><g id="Layer_1" data-name="Layer 1"><circle cx="28.351" cy="59.972" r="3.592"/><circle cx="60.644" cy="59.972" r="3.592"/><path class="cls-1" d="M41.444,73.03c5.22,5.509,11.851,5.247,17.357.293" transform="translate(-4.808 -2.622)"/><path class="cls-1" d="M5.308,4.8" transform="translate(-4.808 -2.622)"/><path class="cls-1" d="M83.62-4.752" transform="translate(-4.808 -2.622)"/><rect x="13.174" y="8.286" width="2.025" height="32.659"/><path d="M20.078,43.637l-2.1.076a.141.141,0,0,1-.146-.136h0v-.01l-.371-16.329-.283-16.329a.785.785,0,0,1,.736-.8l.064,0c.675-.04,1.35-.076,2.025-.1a.869.869,0,0,1,.894.828l0,.069c.126,2.776.12,5.567.149,8.364-.012,2.791-.061,5.578-.146,8.338s-.188,5.5-.346,8.168C20.423,38.459,20.272,41.1,20.078,43.637Zm-.141-.141c-.194-2.905-.345-5.708-.483-8.47-.158-2.775-.256-5.474-.346-8.161s-.134-5.34-.146-7.992c.028-2.647.023-5.3.149-7.965l.9.9c-.675-.02-1.35-.056-2.025-.1l.8-.8L18.5,27.237l-.371,16.329-.147-.146Z" transform="translate(-4.808 -2.622)"/><rect x="25" y="8.739" width="2.396" height="19.143" transform="translate(-5.246 -1.978) rotate(-1.396)"/><path d="M27.7,27.919l-2.463.178a.181.181,0,0,1-.193-.166h0v-.017l-.577-9.56-.5-9.563a.771.771,0,0,1,.668-.8l.113-.015c.8-.1,1.594-.15,2.391-.222a.9.9,0,0,1,.978.815v.014l.008.111c.115,1.649.185,3.319.2,4.981s.009,3.324-.044,4.953-.122,3.239-.218,4.8S27.842,26.488,27.7,27.919Zm-.145-.138-.6-5.07c-.174-1.632-.334-3.217-.452-4.772s-.223-3.089-.277-4.616-.071-3.047-.033-4.587l.987.94c-.8-.034-1.6-.041-2.4-.105l.78-.82-.034,9.576L25.422,27.9l-.193-.185Z" transform="translate(-4.808 -2.622)"/><rect x="27.022" y="3.369" width="2.657" height="22.298"/><path d="M34.558,28.359l-2.728.114a.177.177,0,0,1-.184-.17v-.015L31.3,17.139,31.03,5.99a.776.776,0,0,1,.7-.791l.1-.009c.886-.08,1.772-.108,2.658-.157a.9.9,0,0,1,.953.851v.008l0,.1c.082,1.915.108,3.848.085,5.774s-.073,3.848-.163,5.739-.2,3.762-.336,5.58S34.735,26.669,34.558,28.359Zm-.141-.142c-.177-2.026-.339-3.976-.473-5.873s-.255-3.748-.336-5.569-.149-3.619-.163-5.409,0-3.574.085-5.376l.958.958c-.886-.05-1.772-.077-2.658-.158l.8-.8-.268,11.149-.346,11.149L31.83,28.1Z" transform="translate(-4.808 -2.622)"/><rect x="33.494" y="2.972" width="2.614" height="22.298"/><path d="M40.987,27.963l-2.685.113a.176.176,0,0,1-.183-.169h0v-.014l-.347-11.149L37.5,5.594a.776.776,0,0,1,.7-.791l.1-.009c.871-.079,1.743-.107,2.614-.156a.9.9,0,0,1,.951.851V5.5l0,.1c.084,1.914.11,3.848.087,5.773s-.072,3.849-.162,5.74C41.622,20.892,41.345,24.585,40.987,27.963Zm-.142-.142c-.358-4.055-.635-7.794-.809-11.443-.09-1.824-.15-3.619-.163-5.408s0-3.574.087-5.376l.956.956c-.871-.049-1.743-.077-2.614-.156l.8-.8-.268,11.149-.348,11.149-.184-.184Z" transform="translate(-4.808 -2.622)"/><path class="cls-2" d="M65.35,89.042c-1.031.331-31.549-.078-32.293-.219-26.151-4.967-23.795-40-23.795-40H90.988S92.968,80.184,65.35,89.042Z" transform="translate(-4.808 -2.622)"/></g><g id="Layer_2" data-name="Layer 2"><polygon class="cls-3" points="0.5 14.12 85.601 4.466 85.057 0.5 0.5 14.12"/><polygon class="cls-3" points="0.5 18.162 86.042 22.389 86.146 18.387 0.5 18.162"/></g></svg>