<svg id="Layer_2" data-name="Layer 2" xmlns="http://www.w3.org/2000/svg" viewBox="0 0 88.711 89.047"><defs><style>.cls-1,.cls-5{fill:#94a3b8;}.cls-2,.cls-3,.cls-4{fill:none;}.cls-2,.cls-4,.cls-5{stroke:#94a3b8;}.cls-2,.cls-3,.cls-5{stroke-linecap:round;}.cls-2,.cls-3{stroke-miterlimit:10;stroke-width:4px;}.cls-3{stroke:#000;}.cls-4,.cls-5{stroke-linejoin:round;}.cls-4{stroke-width:5px;}</style></defs><circle class="cls-1" cx="28.351" cy="59.972" r="3.592"/><circle class="cls-1" cx="60.644" cy="59.972" r="3.592"/><path class="cls-2" d="M43.4,73.353c5.22,5.51,11.851,5.248,17.357.294" transform="translate(-6.767 -2.946)"/><path class="cls-3" d="M7.267,5.126" transform="translate(-6.767 -2.946)"/><path class="cls-3" d="M85.579-4.428" transform="translate(-6.767 -2.946)"/><rect class="cls-1" x="13.174" y="8.286" width="2.025" height="32.659"/><path class="cls-1" d="M22.037,43.961l-2.1.076A.141.141,0,0,1,19.8,43.9h0v-.01l-.371-16.329-.283-16.33a.785.785,0,0,1,.736-.8l.064,0c.675-.04,1.35-.076,2.025-.1a.869.869,0,0,1,.894.828l0,.068c.126,2.777.12,5.568.149,8.365-.012,2.791-.061,5.578-.146,8.337s-.188,5.5-.346,8.169C22.382,38.783,22.231,41.423,22.037,43.961ZM21.9,43.82c-.194-2.906-.345-5.708-.483-8.471-.158-2.774-.256-5.473-.346-8.161s-.134-5.339-.146-7.991c.028-2.647.023-5.3.149-7.966l.9.9c-.675-.02-1.35-.056-2.025-.1l.8-.8-.282,16.33L20.088,43.89l-.147-.146Z" transform="translate(-6.767 -2.946)"/><rect class="cls-1" x="26.959" y="9.063" width="2.396" height="19.143" transform="translate(-7.213 -2.254) rotate(-1.396)"/><path class="cls-1" d="M29.66,28.243l-2.463.178a.179.179,0,0,1-.192-.166v-.018l-.577-9.561-.5-9.562a.773.773,0,0,1,.668-.805l.113-.014c.8-.1,1.594-.15,2.391-.222a.9.9,0,0,1,.978.815V8.9l.008.111c.115,1.649.185,3.319.2,4.981s.009,3.324-.044,4.953-.122,3.239-.218,4.8S29.8,26.812,29.66,28.243Zm-.145-.138-.595-5.071c-.174-1.631-.334-3.216-.452-4.771s-.223-3.089-.277-4.616S28.12,10.6,28.158,9.06l.986.94c-.8-.034-1.6-.041-2.4-.106l.78-.819-.034,9.575-.111,9.578-.193-.185Z" transform="translate(-6.767 -2.946)"/><rect class="cls-1" x="27.022" y="3.369" width="2.657" height="22.298"/><path class="cls-1" d="M36.517,28.683l-2.728.114a.177.177,0,0,1-.184-.17v-.015l-.347-11.149L32.989,6.314a.776.776,0,0,1,.7-.791l.1-.009c.886-.08,1.772-.108,2.658-.158a.9.9,0,0,1,.953.852v.008l0,.1c.082,1.915.108,3.848.085,5.774s-.073,3.848-.163,5.739-.2,3.762-.336,5.58S36.694,26.993,36.517,28.683Zm-.141-.142c-.177-2.027-.339-3.976-.473-5.873s-.255-3.748-.336-5.569-.149-3.62-.163-5.409,0-3.574.085-5.376l.958.958c-.886-.05-1.772-.078-2.658-.158l.8-.8-.268,11.149-.346,11.149-.186-.185Z" transform="translate(-6.767 -2.946)"/><rect class="cls-1" x="33.494" y="2.972" width="2.614" height="22.298"/><path class="cls-1" d="M42.946,28.286l-2.685.114a.176.176,0,0,1-.183-.169h0v-.014L39.73,17.067,39.461,5.918a.776.776,0,0,1,.7-.791l.1-.009c.871-.079,1.743-.107,2.614-.156a.9.9,0,0,1,.951.85v.007l.005.1c.083,1.914.109,3.848.086,5.773s-.072,3.849-.162,5.74C43.581,21.216,43.3,24.909,42.946,28.286Zm-.142-.141C42.446,24.09,42.169,20.351,42,16.7c-.09-1.824-.15-3.619-.163-5.408s0-3.574.087-5.376l.956.956C42,6.825,41.132,6.8,40.261,6.718l.8-.8-.268,11.149-.348,11.149-.184-.184Z" transform="translate(-6.767 -2.946)"/><path class="cls-4" d="M67.309,89.366c-1.031.331-31.549-.078-32.293-.219-26.151-4.967-23.795-40-23.795-40H92.947S94.927,80.507,67.309,89.366Z" transform="translate(-6.767 -2.946)"/><polygon class="cls-5" points="0.5 14.12 85.601 4.466 85.057 0.5 0.5 14.12"/><polygon class="cls-5" points="0.5 18.162 86.042 22.389 86.146 18.387 0.5 18.162"/></svg>