<svg id="Layer_3" data-name="Layer 3" xmlns="http://www.w3.org/2000/svg" viewBox="0 0 88.711 89.047"><defs><style>.cls-1,.cls-5{fill:#cbd5e1;}.cls-2,.cls-3,.cls-4{fill:none;}.cls-2,.cls-4,.cls-5{stroke:#cbd5e1;}.cls-2,.cls-3,.cls-5{stroke-linecap:round;}.cls-2,.cls-3{stroke-miterlimit:10;stroke-width:4px;}.cls-3{stroke:#000;}.cls-4,.cls-5{stroke-linejoin:round;}.cls-4{stroke-width:5px;}</style></defs><circle class="cls-1" cx="28.351" cy="59.972" r="3.592"/><circle class="cls-1" cx="60.644" cy="59.972" r="3.592"/><path class="cls-2" d="M44.143,73.415c5.22,5.509,11.851,5.247,17.357.294" transform="translate(-7.507 -3.007)"/><path class="cls-3" d="M8.007,5.188" transform="translate(-7.507 -3.007)"/><path class="cls-3" d="M86.319-4.366" transform="translate(-7.507 -3.007)"/><rect class="cls-1" x="13.174" y="8.286" width="2.025" height="32.659"/><path class="cls-1" d="M22.777,44.023l-2.1.076a.141.141,0,0,1-.146-.136v-.011l-.371-16.329-.283-16.33a.784.784,0,0,1,.736-.8l.064,0c.675-.041,1.35-.077,2.025-.1a.869.869,0,0,1,.894.828l0,.068c.126,2.776.12,5.568.148,8.364-.011,2.791-.06,5.579-.145,8.338s-.188,5.5-.346,8.169C23.122,38.844,22.971,41.485,22.777,44.023Zm-.141-.142c-.194-2.905-.345-5.708-.483-8.47-.159-2.774-.256-5.474-.346-8.161s-.135-5.339-.146-7.992c.028-2.647.023-5.3.149-7.965l.9.9c-.675-.02-1.35-.056-2.025-.1l.8-.8L21.2,27.623l-.371,16.329-.147-.147Z" transform="translate(-7.507 -3.007)"/><rect class="cls-1" x="27.699" y="9.124" width="2.396" height="19.143" transform="translate(-7.954 -2.298) rotate(-1.396)"/><path class="cls-1" d="M30.4,28.3l-2.463.179a.182.182,0,0,1-.193-.167h0V28.3l-.577-9.56-.5-9.562a.771.771,0,0,1,.668-.8l.113-.015c.8-.1,1.593-.149,2.39-.222a.9.9,0,0,1,.979.816v.013l.008.111c.115,1.65.185,3.32.2,4.982s.009,3.323-.044,4.953-.122,3.239-.218,4.8S30.541,26.873,30.4,28.3Zm-.145-.138L29.66,23.1c-.174-1.631-.334-3.216-.452-4.771s-.223-3.089-.277-4.616-.072-3.047-.033-4.588l.986.94c-.8-.033-1.6-.04-2.4-.105l.78-.819-.034,9.575-.111,9.577-.193-.184Z" transform="translate(-7.507 -3.007)"/><rect class="cls-1" x="27.022" y="3.369" width="2.657" height="22.298"/><path class="cls-1" d="M37.257,28.744l-2.728.115a.177.177,0,0,1-.184-.17v-.016L34,17.525,33.729,6.376a.778.778,0,0,1,.7-.792l.1-.008c.886-.081,1.772-.108,2.658-.158a.9.9,0,0,1,.953.852v.007l0,.1c.082,1.914.108,3.848.085,5.773s-.073,3.849-.163,5.74-.2,3.762-.336,5.58S37.434,27.055,37.257,28.744Zm-.141-.141c-.177-2.027-.339-3.977-.473-5.873s-.255-3.749-.336-5.569-.149-3.62-.163-5.41,0-3.573.085-5.375l.958.957c-.886-.049-1.772-.077-2.658-.157l.8-.8-.268,11.149-.347,11.148-.185-.185Z" transform="translate(-7.507 -3.007)"/><rect class="cls-1" x="33.494" y="2.972" width="2.614" height="22.298"/><path class="cls-1" d="M43.685,28.348,41,28.461a.176.176,0,0,1-.183-.169h0v-.015L40.47,17.128,40.2,5.98a.777.777,0,0,1,.7-.792l.1-.009c.871-.079,1.742-.107,2.614-.155a.9.9,0,0,1,.951.85V5.88l0,.1c.084,1.914.11,3.847.087,5.773s-.073,3.848-.162,5.74C44.321,21.277,44.044,24.971,43.685,28.348Zm-.141-.141c-.358-4.056-.635-7.8-.809-11.443-.09-1.825-.15-3.619-.163-5.409s0-3.574.087-5.375l.956.955c-.872-.049-1.743-.076-2.614-.155l.8-.8-.268,11.148-.348,11.149L41,28.093Z" transform="translate(-7.507 -3.007)"/><path class="cls-4" d="M68.049,89.428c-1.031.331-31.549-.078-32.293-.22-26.151-4.967-23.795-40-23.795-40H93.687S95.667,80.569,68.049,89.428Z" transform="translate(-7.507 -3.007)"/><polygon class="cls-5" points="0.5 14.12 85.601 4.466 85.057 0.5 0.5 14.12"/><polygon class="cls-5" points="0.5 18.162 86.042 22.389 86.146 18.387 0.5 18.162"/></svg>